# xmcd
#
# Track frame offsets: 
#        150
#        15582
#        32160
#        64072
#        92797
#        124405
#
# Disc length: 1997 seconds
#
# Revision: 0
# Processed by: cddbd v1.5.2PL0 Copyright (c) Steve Scherf et al.
# Submitted via: ExactAudioCopy v0.95b4
#
DISCID=4b07cb06
DTITLE=Flipside - Juliet
DYEAR=1900
DGENRE=
TTITLE0=Radio Edit
TTITLE1=Video Edit
TTITLE2=Extended
TTITLE3=Rocco vs Bass-T Remix
TTITLE4=Lichtenfels Remix
TTITLE5=Teilui
EXTD=
EXTT0=
EXTT1=
EXTT2=
EXTT3=
EXTT4=
EXTT5=
PLAYORDER=
